<?xml version="1.0" encoding="utf-8"?><!-- Uploaded to: SVG Repo, www.svgrepo.com, Generator: SVG Repo Mixer Tools -->
<svg fill="#000000" width="800px" height="800px" viewBox="0 0 24 24" id="rain-alt" data-name="Flat Color" xmlns="http://www.w3.org/2000/svg" class="icon flat-color"><path id="secondary" d="M16,22a.93.93,0,0,1-.45-.11,1,1,0,0,1-.44-1.34l2-4a1,1,0,1,1,1.78.9l-2,4A1,1,0,0,1,16,22ZM8,22a.93.93,0,0,1-.45-.11,1,1,0,0,1-.44-1.34l2-4a1,1,0,1,1,1.78.9l-2,4A1,1,0,0,1,8,22Zm5-2a.93.93,0,0,1-.45-.11,1,1,0,0,1-.44-1.34l1-2a1,1,0,1,1,1.78.9l-1,2A1,1,0,0,1,13,20ZM5,20a.93.93,0,0,1-.45-.11,1,1,0,0,1-.44-1.34l1-2a1,1,0,0,1,1.78.9l-1,2A1,1,0,0,1,5,20Z" style="fill: rgb(44, 169, 188);"></path><path id="primary" d="M17,4a4.36,4.36,0,0,0-.51,0A6,6,0,0,0,12,2,6,6,0,0,0,6.35,6,4,4,0,1,0,6,14H17A5,5,0,0,0,17,4Z" style="fill: rgb(0, 0, 0);"></path></svg>